<svg width="183" height="32" viewBox="0 0 183 32" fill="none" xmlns="http://www.w3.org/2000/svg">
<path fill-rule="evenodd" clip-rule="evenodd" d="M44.6868 10.9588C44.6868 13.3802 42.8401 15 39.8647 15C38.3086 15 36.8209 14.5396 36 13.7382L36.9063 11.9819C37.5219 12.63 38.4967 13.0049 39.5911 13.0049C41.1985 13.0049 42.1903 12.1866 42.1903 10.976C42.1903 9.76516 41.2327 8.99782 39.7792 8.99782C39.1293 8.99782 38.5651 9.13435 38.052 9.40721L37.4022 8.19682L40.8907 4.20666H36.5815V2.21179H44.037V3.71217L40.771 7.17377C43.1308 7.22479 44.6868 8.74211 44.6868 10.9588Z" fill="#DEE0E3"/>
<path fill-rule="evenodd" clip-rule="evenodd" d="M45.5527 8.44502C45.5527 4.57445 48.2375 2 52.2559 2C54.3251 2 56.0009 2.68182 57.2491 4.02874L55.7272 5.56342C55.009 4.64261 53.795 3.99466 52.2901 3.99466C49.7422 3.99466 48.0492 5.78505 48.0492 8.46216C48.0492 11.1731 49.7763 12.9635 52.3242 12.9635C54.0342 12.9635 55.2141 12.1962 56.0181 10.9687L57.6425 12.418C56.4284 14.0719 54.5815 14.9586 52.2729 14.9586C48.2545 14.9586 45.5527 12.3501 45.5527 8.44502Z" fill="#DEE0E3"/>
<path fill-rule="evenodd" clip-rule="evenodd" d="M65.3209 10.144C65.3209 8.47317 64.3121 7.3646 62.8072 7.3646C61.2855 7.3646 60.2765 8.47317 60.2765 10.144C60.2765 11.8154 61.2855 12.9233 62.8072 12.9233C64.3121 12.9233 65.3209 11.8154 65.3209 10.144ZM57.8653 10.144C57.8653 7.29644 59.8489 5.38688 62.8072 5.38688C65.7484 5.38688 67.7321 7.29644 67.7321 10.144C67.7321 13.0086 65.7484 14.9184 62.8072 14.9184C59.8489 14.9184 57.8653 13.0086 57.8653 10.144Z" fill="#DEE0E3"/>
<path fill-rule="evenodd" clip-rule="evenodd" d="M83.2275 8.96765V14.7478H80.9019V9.34254C80.9019 8.1493 80.1496 7.3646 79.0036 7.3646C77.8753 7.3646 77.1227 8.1493 77.1227 9.34254V14.7478H74.7971V9.34254C74.7971 8.1493 74.0448 7.3646 72.8993 7.3646C71.7705 7.3646 71.018 8.1493 71.018 9.34254V14.7478H68.6923V5.55749H70.9326L70.9668 6.64849C71.6166 5.8132 72.5912 5.38688 73.72 5.38688C74.9338 5.38688 75.9087 5.8983 76.5073 6.76788C77.1741 5.86443 78.2513 5.38688 79.4825 5.38688C81.7228 5.38688 83.2275 6.81931 83.2275 8.96765Z" fill="#DEE0E3"/>
<path fill-rule="evenodd" clip-rule="evenodd" d="M99.3616 8.96765V14.7478H97.036V9.34254C97.036 8.1493 96.2836 7.3646 95.1377 7.3646C94.0094 7.3646 93.2568 8.1493 93.2568 9.34254V14.7478H90.9312V9.34254C90.9312 8.1493 90.1789 7.3646 89.0331 7.3646C87.9046 7.3646 87.1521 8.1493 87.1521 9.34254V14.7478H84.8264V5.55749H87.0667L87.1009 6.64849C87.7505 5.8132 88.7253 5.38688 89.8539 5.38688C91.0679 5.38688 92.0428 5.8983 92.6412 6.76788C93.3082 5.86443 94.3854 5.38688 95.6166 5.38688C97.8569 5.38688 99.3616 6.81931 99.3616 8.96765Z" fill="#DEE0E3"/>
<path fill-rule="evenodd" clip-rule="evenodd" d="M106.291 10.9115C105.693 10.7921 105.077 10.724 104.547 10.724C103.453 10.724 102.751 11.2352 102.751 12.0199C102.751 12.7698 103.247 13.2643 104.188 13.2643C105.265 13.2643 106.274 12.4119 106.291 10.9115ZM108.617 8.96765V14.7478H106.377L106.325 13.4349C105.71 14.3898 104.65 14.9184 103.521 14.9184C101.606 14.9184 100.323 13.7758 100.323 12.0711C100.323 10.2976 101.897 9.13806 104.256 9.13806C104.889 9.13806 105.59 9.20622 106.291 9.34254V9.17235C106.291 7.94461 105.47 7.21135 104.068 7.21135C103.196 7.21135 102.495 7.46706 101.914 7.94461L100.905 6.58033C101.897 5.77891 103.059 5.38688 104.667 5.38688C107.027 5.38688 108.617 6.80217 108.617 8.96765Z" fill="#DEE0E3"/>
<path fill-rule="evenodd" clip-rule="evenodd" d="M109.664 13.8272L110.536 12.4288C111.409 12.9405 112.28 13.1109 113.187 13.1109C114.042 13.1109 114.623 12.7527 114.623 12.1901C114.623 11.6274 113.973 11.3209 113.05 11.0819L112.28 10.8772C110.724 10.4678 109.664 9.87132 109.664 8.42194C109.664 6.59747 111.101 5.38688 113.289 5.38688C114.674 5.38688 115.854 5.67667 116.761 6.29054L115.786 7.80807C115.051 7.39889 114.264 7.21135 113.443 7.21135C112.605 7.21135 112.024 7.51828 112.024 8.04685C112.024 8.59235 112.605 8.84827 113.409 9.05275L114.178 9.27459C115.752 9.68356 117 10.3997 117 12.0199C117 13.7588 115.461 14.9184 113.152 14.9184C111.75 14.9184 110.502 14.5604 109.664 13.8272Z" fill="#DEE0E3"/>
<path d="M102.127 29.9064L100.011 24.0599H99.9744C99.9836 24.1871 99.9929 24.3514 100.002 24.553C100.015 24.7514 100.024 24.9685 100.03 25.2041C100.039 25.4367 100.044 25.6661 100.044 25.8925V29.9064H99.1719V23.1064H100.54L102.549 28.646H102.581L104.641 23.1064H106V29.9064H105.082V25.8367C105.082 25.632 105.085 25.4196 105.091 25.1995C105.097 24.9762 105.105 24.7654 105.114 24.5669C105.126 24.3654 105.137 24.1995 105.146 24.0692H105.105L102.938 29.9064H102.127Z" fill="#9FA2A8"/>
<path d="M94.676 23.1064C95.2481 23.1064 95.7197 23.1778 96.0908 23.3204C96.465 23.4599 96.7433 23.6739 96.9258 23.9623C97.1082 24.2475 97.1995 24.6103 97.1995 25.0506C97.1995 25.3979 97.1361 25.6909 97.0093 25.9297C96.8825 26.1685 96.7155 26.3638 96.5083 26.5157C96.3042 26.6677 96.0846 26.7871 95.8496 26.8739L97.7468 29.9064H96.6567L95.0054 27.1251H93.7576V29.9064H92.8066V23.1064H94.676ZM94.6157 23.9157H93.7576V26.3297H94.6807C95.2157 26.3297 95.6069 26.2258 95.8542 26.0181C96.1016 25.8072 96.2253 25.4971 96.2253 25.0878C96.2253 24.663 96.0939 24.3623 95.8311 24.1855C95.5682 24.0057 95.1631 23.9157 94.6157 23.9157Z" fill="#9FA2A8"/>
<path d="M90.926 26.4977C90.926 27.0217 90.8595 27.4992 90.7266 27.9302C90.5936 28.3581 90.3957 28.7271 90.1328 29.0372C89.873 29.3442 89.5468 29.5814 89.1541 29.7488C88.7644 29.9163 88.3083 30 87.7856 30C87.2537 30 86.7899 29.9163 86.394 29.7488C86.0013 29.5814 85.675 29.3426 85.4153 29.0326C85.1555 28.7225 84.9607 28.3519 84.8308 27.9209C84.704 27.4899 84.6406 27.0124 84.6406 26.4884C84.6406 25.7907 84.755 25.1798 84.9839 24.6558C85.2127 24.1318 85.5606 23.7256 86.0276 23.4372C86.4976 23.1457 87.0883 23 87.7996 23C88.4861 23 89.0613 23.1442 89.5251 23.4326C89.989 23.7209 90.3385 24.1271 90.5735 24.6512C90.8085 25.1721 90.926 25.7876 90.926 26.4977ZM85.6379 26.4977C85.6379 27.0496 85.7137 27.5271 85.8652 27.9302C86.0199 28.3302 86.2549 28.6403 86.5703 28.8605C86.8888 29.0775 87.2939 29.186 87.7856 29.186C88.2835 29.186 88.6902 29.0775 89.0056 28.8605C89.321 28.6403 89.553 28.3302 89.7014 27.9302C89.8499 27.5271 89.9241 27.0496 89.9241 26.4977C89.9241 25.6605 89.754 25.0062 89.4138 24.5349C89.0736 24.0605 88.5356 23.8233 87.7996 23.8233C87.3048 23.8233 86.8981 23.9318 86.5796 24.1488C86.2611 24.3628 86.0245 24.6698 85.8699 25.0698C85.7153 25.4667 85.6379 25.9426 85.6379 26.4977Z" fill="#9FA2A8"/>
<path d="M80.54 29.9064H79.5938V23.1064H83.3975V23.925H80.54V26.232H83.2212V27.046H80.54V29.9064Z" fill="#9FA2A8"/>
<path d="M76.105 29.9069H75.1494V23.9302H73.0898V23.1069H78.1599V23.9302H76.105V29.9069Z" fill="#9FA2A8"/>
<path d="M71.5674 29.907L70.8159 27.8838H68.158L67.4158 29.907H66.4277L69.0161 23.0791H69.9902L72.5647 29.907H71.5674ZM70.5515 27.0558L69.8372 25.0512C69.8155 24.983 69.7815 24.8807 69.7351 24.7442C69.6918 24.6078 69.647 24.4667 69.6006 24.321C69.5573 24.1752 69.5217 24.0543 69.4939 23.9582C69.463 24.0853 69.4274 24.2202 69.3872 24.3628C69.347 24.5024 69.3068 24.6341 69.2666 24.7582C69.2295 24.8791 69.1986 24.9768 69.1738 25.0512L68.4502 27.0558H70.5515Z" fill="#9FA2A8"/>
<path d="M61.8711 29.9069V23.1069H62.822V29.079H65.7676V29.9069H61.8711Z" fill="#9FA2A8"/>
<path d="M57.5608 23.1069C58.436 23.1069 59.0745 23.2821 59.4766 23.6325C59.8817 23.9829 60.0842 24.4806 60.0842 25.1255C60.0842 25.417 60.0378 25.6945 59.9451 25.9581C59.8523 26.2186 59.7008 26.4496 59.4905 26.6511C59.2833 26.8496 59.0096 27.0077 58.6694 27.1255C58.3293 27.2403 57.9118 27.2976 57.417 27.2976H56.6423V29.9069H55.6914V23.1069H57.5608ZM57.4866 23.9069H56.6423V26.493H57.3149C57.7077 26.493 58.037 26.4496 58.303 26.3627C58.5689 26.2728 58.7699 26.1302 58.906 25.9348C59.0421 25.7395 59.1101 25.4821 59.1101 25.1627C59.1101 24.741 58.9787 24.4263 58.7158 24.2186C58.453 24.0108 58.0432 23.9069 57.4866 23.9069Z" fill="#9FA2A8"/>
<path d="M49.6406 29.9069V23.1069H50.5916V29.9069H49.6406Z" fill="#9FA2A8"/>
<path d="M45.3303 23.1069C46.2055 23.1069 46.8441 23.2821 47.2461 23.6325C47.6512 23.9829 47.8538 24.4806 47.8538 25.1255C47.8538 25.417 47.8074 25.6945 47.7146 25.9581C47.6218 26.2186 47.4703 26.4496 47.26 26.6511C47.0528 26.8496 46.7791 27.0077 46.439 27.1255C46.0988 27.2403 45.6813 27.2976 45.1865 27.2976H44.4119V29.9069H43.4609V23.1069H45.3303ZM45.2561 23.9069H44.4119V26.493H45.0845C45.4772 26.493 45.8066 26.4496 46.0725 26.3627C46.3385 26.2728 46.5395 26.1302 46.6755 25.9348C46.8116 25.7395 46.8796 25.4821 46.8796 25.1627C46.8796 24.741 46.7482 24.4263 46.4854 24.2186C46.2225 24.0108 45.8127 23.9069 45.2561 23.9069Z" fill="#9FA2A8"/>
<path d="M41.1396 29.907L40.3882 27.8838H37.7302L36.988 29.907H36L38.5884 23.0791H39.5625L42.137 29.907H41.1396ZM40.1238 27.0558L39.4094 25.0512C39.3878 24.983 39.3538 24.8807 39.3074 24.7442C39.2641 24.6078 39.2192 24.4667 39.1729 24.321C39.1296 24.1752 39.094 24.0543 39.0662 23.9582C39.0352 24.0853 38.9997 24.2202 38.9595 24.3628C38.9193 24.5024 38.8791 24.6341 38.8389 24.7582C38.8018 24.8791 38.7708 24.9768 38.7461 25.0512L38.0225 27.0558H40.1238Z" fill="#9FA2A8"/>
<rect width="32" height="32" fill="#13A8A1"/>
<path fill-rule="evenodd" clip-rule="evenodd" d="M21.0583 19.8147H24.6673C24.6857 19.8147 24.702 19.803 24.7078 19.7857L25.9269 16.1435L25.9274 16.1419L26.9838 12.5303C26.9869 12.5197 26.9857 12.5083 26.9805 12.4985L26.8247 12.208C26.8173 12.1942 26.8028 12.1855 26.7871 12.1855H22.3651C22.3441 12.1855 22.3263 12.2007 22.323 12.2212L21.6894 16.1422L21.6892 16.1432L21.0163 19.7646C21.0121 19.7876 21.0274 19.8097 21.0506 19.814C21.0531 19.8145 21.0557 19.8147 21.0583 19.8147Z" fill="white"/>
<path fill-rule="evenodd" clip-rule="evenodd" d="M12.9515 19.8147H16.5452C16.5636 19.8147 16.5798 19.803 16.5857 19.7858L17.8131 16.1435L17.8136 16.1419L18.8771 12.5304C18.8803 12.5197 18.8791 12.5082 18.8738 12.4984L18.7169 12.2079C18.7095 12.1941 18.6951 12.1855 18.6793 12.1855H14.2268C14.2058 12.1855 14.188 12.2006 14.1846 12.2212L13.5467 16.1424L13.5467 16.143L12.9095 19.765C12.9054 19.7881 12.9209 19.81 12.9442 19.8141C12.9466 19.8145 12.949 19.8147 12.9515 19.8147Z" fill="white"/>
<path fill-rule="evenodd" clip-rule="evenodd" d="M5.0583 19.8147H8.66733C8.68571 19.8147 8.70202 19.803 8.70782 19.7857L9.92695 16.1435L9.92743 16.1419L10.9838 12.5303C10.9869 12.5197 10.9857 12.5083 10.9805 12.4985L10.8247 12.208C10.8173 12.1942 10.8028 12.1855 10.7871 12.1855H6.36508C6.34412 12.1855 6.32627 12.2007 6.32295 12.2212L5.6894 16.1422L5.68923 16.1432L5.01634 19.7646C5.01206 19.7876 5.02738 19.8097 5.05055 19.814C5.05311 19.8145 5.0557 19.8147 5.0583 19.8147Z" fill="white"/>
</svg>
