<svg width="184" height="33" viewBox="0 0 184 33" fill="none" xmlns="http://www.w3.org/2000/svg">
<path fill-rule="evenodd" clip-rule="evenodd" d="M44.7962 11.7508C44.7962 14.1722 42.9495 15.792 39.9741 15.792C38.418 15.792 36.9303 15.3316 36.1094 14.5302L37.0156 12.7739C37.6313 13.422 38.6061 13.7969 39.7004 13.7969C41.3079 13.7969 42.2997 12.9786 42.2997 11.768C42.2997 10.5572 41.3421 9.78981 39.8885 9.78981C39.2387 9.78981 38.6745 9.92634 38.1614 10.1992L37.5115 8.98881L41.0001 4.99865H36.6908V3.00378H44.1464V4.50417L40.8803 7.96577C43.2401 8.01678 44.7962 9.5341 44.7962 11.7508Z" fill="#242424"/>
<path fill-rule="evenodd" clip-rule="evenodd" d="M45.662 9.23701C45.662 5.36644 48.3468 2.79199 52.3653 2.79199C54.4344 2.79199 56.1102 3.47381 57.3585 4.82073L55.8366 6.35541C55.1184 5.4346 53.9043 4.78665 52.3994 4.78665C49.8515 4.78665 48.1585 6.57704 48.1585 9.25416C48.1585 11.9651 49.8857 13.7555 52.4336 13.7555C54.1436 13.7555 55.3235 12.9882 56.1274 11.7607L57.7519 13.21C56.5378 14.8639 54.6909 15.7506 52.3822 15.7506C48.3638 15.7506 45.662 13.1421 45.662 9.23701Z" fill="#242424"/>
<path fill-rule="evenodd" clip-rule="evenodd" d="M65.4303 10.936C65.4303 9.26516 64.4215 8.1566 62.9166 8.1566C61.3949 8.1566 60.3859 9.26516 60.3859 10.936C60.3859 12.6074 61.3949 13.7153 62.9166 13.7153C64.4215 13.7153 65.4303 12.6074 65.4303 10.936ZM57.9747 10.936C57.9747 8.08843 59.9583 6.17887 62.9166 6.17887C65.8578 6.17887 67.8414 8.08843 67.8414 10.936C67.8414 13.8006 65.8578 15.7104 62.9166 15.7104C59.9583 15.7104 57.9747 13.8006 57.9747 10.936Z" fill="#242424"/>
<path fill-rule="evenodd" clip-rule="evenodd" d="M83.3369 9.75964V15.5398H81.0113V10.1345C81.0113 8.94129 80.2589 8.1566 79.113 8.1566C77.9847 8.1566 77.2321 8.94129 77.2321 10.1345V15.5398H74.9065V10.1345C74.9065 8.94129 74.1542 8.1566 73.0086 8.1566C71.8799 8.1566 71.1273 8.94129 71.1273 10.1345V15.5398H68.8017V6.34948H71.042L71.0762 7.44048C71.726 6.60519 72.7006 6.17887 73.8294 6.17887C75.0432 6.17887 76.018 6.69029 76.6167 7.55987C77.2835 6.65642 78.3606 6.17887 79.5919 6.17887C81.8322 6.17887 83.3369 7.61131 83.3369 9.75964Z" fill="#242424"/>
<path fill-rule="evenodd" clip-rule="evenodd" d="M99.471 9.75964V15.5398H97.1454V10.1345C97.1454 8.94129 96.393 8.1566 95.2471 8.1566C94.1188 8.1566 93.3662 8.94129 93.3662 10.1345V15.5398H91.0406V10.1345C91.0406 8.94129 90.2882 8.1566 89.1425 8.1566C88.014 8.1566 87.2614 8.94129 87.2614 10.1345V15.5398H84.9358V6.34948H87.1761L87.2103 7.44048C87.8599 6.60519 88.8347 6.17887 89.9632 6.17887C91.1773 6.17887 92.1521 6.69029 92.7506 7.55987C93.4176 6.65642 94.4947 6.17887 95.726 6.17887C97.9663 6.17887 99.471 7.61131 99.471 9.75964Z" fill="#242424"/>
<path fill-rule="evenodd" clip-rule="evenodd" d="M106.401 11.7035C105.802 11.5841 105.187 11.516 104.656 11.516C103.562 11.516 102.861 12.0272 102.861 12.8119C102.861 13.5618 103.357 14.0563 104.297 14.0563C105.375 14.0563 106.384 13.2039 106.401 11.7035ZM108.726 9.75964V15.5398H106.486L106.435 14.2269C105.819 15.1818 104.759 15.7104 103.63 15.7104C101.715 15.7104 100.433 14.5677 100.433 12.8631C100.433 11.0896 102.006 9.93005 104.366 9.93005C104.998 9.93005 105.7 9.99821 106.401 10.1345V9.96434C106.401 8.7366 105.58 8.00334 104.178 8.00334C103.305 8.00334 102.604 8.25905 102.023 8.7366L101.014 7.37232C102.006 6.5709 103.169 6.17887 104.776 6.17887C107.136 6.17887 108.726 7.59416 108.726 9.75964Z" fill="#242424"/>
<path fill-rule="evenodd" clip-rule="evenodd" d="M109.774 14.6192L110.646 13.2208C111.518 13.7325 112.39 13.9029 113.296 13.9029C114.151 13.9029 114.733 13.5447 114.733 12.982C114.733 12.4194 114.083 12.1129 113.159 11.8739L112.39 11.6692C110.834 11.2598 109.774 10.6633 109.774 9.21394C109.774 7.38947 111.21 6.17887 113.399 6.17887C114.784 6.17887 115.964 6.46866 116.87 7.08253L115.896 8.60006C115.16 8.19089 114.374 8.00334 113.553 8.00334C112.715 8.00334 112.133 8.31028 112.133 8.83884C112.133 9.38434 112.715 9.64026 113.518 9.84474L114.288 10.0666C115.861 10.4755 117.109 11.1917 117.109 12.8119C117.109 14.5508 115.57 15.7104 113.262 15.7104C111.86 15.7104 110.611 15.3524 109.774 14.6192Z" fill="#242424"/>
<path d="M102.236 30.6984L100.121 24.8519H100.084C100.093 24.9791 100.102 25.1434 100.112 25.3449C100.124 25.5434 100.133 25.7605 100.139 25.9961C100.149 26.2287 100.153 26.4581 100.153 26.6845V30.6984H99.2812V23.8984H100.65L102.658 29.438H102.691L104.75 23.8984H106.109V30.6984H105.191V26.6287C105.191 26.424 105.194 26.2116 105.2 25.9915C105.206 25.7682 105.214 25.5574 105.223 25.3589C105.236 25.1574 105.247 24.9915 105.256 24.8612H105.214L103.048 30.6984H102.236Z" fill="#707070"/>
<path d="M94.7854 23.8984C95.3575 23.8984 95.8291 23.9698 96.2002 24.1124C96.5744 24.2519 96.8527 24.4659 97.0352 24.7543C97.2176 25.0395 97.3088 25.4023 97.3088 25.8426C97.3088 26.1899 97.2454 26.4829 97.1187 26.7217C96.9919 26.9605 96.8249 27.1558 96.6177 27.3077C96.4136 27.4597 96.194 27.5791 95.959 27.6659L97.8562 30.6984H96.7661L95.1147 27.917H93.8669V30.6984H92.916V23.8984H94.7854ZM94.7251 24.7077H93.8669V27.1217H94.79C95.325 27.1217 95.7162 27.0178 95.9636 26.8101C96.211 26.5992 96.3347 26.2891 96.3347 25.8798C96.3347 25.455 96.2033 25.1543 95.9404 24.9775C95.6776 24.7977 95.2725 24.7077 94.7251 24.7077Z" fill="#707070"/>
<path d="M91.0354 27.2897C91.0354 27.8137 90.9689 28.2912 90.8359 28.7222C90.703 29.1501 90.505 29.5191 90.2422 29.8292C89.9824 30.1362 89.6562 30.3734 89.2634 30.5408C88.8738 30.7083 88.4176 30.792 87.895 30.792C87.3631 30.792 86.8993 30.7083 86.5034 30.5408C86.1107 30.3734 85.7844 30.1346 85.5247 29.8246C85.2649 29.5145 85.0701 29.1439 84.9402 28.7129C84.8134 28.2819 84.75 27.8044 84.75 27.2804C84.75 26.5827 84.8644 25.9718 85.0933 25.4478C85.3221 24.9238 85.67 24.5176 86.137 24.2292C86.607 23.9377 87.1977 23.792 87.9089 23.792C88.5955 23.792 89.1707 23.9362 89.6345 24.2246C90.0984 24.5129 90.4478 24.9191 90.6829 25.4432C90.9179 25.9641 91.0354 26.5796 91.0354 27.2897ZM85.7473 27.2897C85.7473 27.8416 85.8231 28.3191 85.9746 28.7222C86.1292 29.1222 86.3643 29.4323 86.6797 29.6525C86.9982 29.8695 87.4033 29.978 87.895 29.978C88.3929 29.978 88.7996 29.8695 89.115 29.6525C89.4304 29.4323 89.6624 29.1222 89.8108 28.7222C89.9592 28.3191 90.0334 27.8416 90.0334 27.2897C90.0334 26.4525 89.8634 25.7982 89.5232 25.3269C89.183 24.8525 88.6449 24.6152 87.9089 24.6152C87.4141 24.6152 87.0075 24.7238 86.689 24.9408C86.3704 25.1548 86.1339 25.4618 85.9792 25.8618C85.8246 26.2587 85.7473 26.7346 85.7473 27.2897Z" fill="#707070"/>
<path d="M80.6494 30.6984H79.7031V23.8984H83.5068V24.717H80.6494V27.024H83.3306V27.838H80.6494V30.6984Z" fill="#707070"/>
<path d="M76.2144 30.6989H75.2588V24.7222H73.1992V23.8989H78.2693V24.7222H76.2144V30.6989Z" fill="#707070"/>
<path d="M71.6768 30.699L70.9253 28.6757H68.2673L67.5251 30.699H66.5371L69.1255 23.8711H70.0996L72.6741 30.699H71.6768ZM70.6609 27.8478L69.9465 25.8432C69.9249 25.775 69.8909 25.6726 69.8445 25.5362C69.8012 25.3998 69.7563 25.2587 69.71 25.113C69.6667 24.9672 69.6311 24.8463 69.6033 24.7502C69.5723 24.8773 69.5368 25.0122 69.4966 25.1548C69.4564 25.2943 69.4162 25.4261 69.376 25.5502C69.3389 25.6711 69.3079 25.7688 69.2832 25.8432L68.5596 27.8478H70.6609Z" fill="#707070"/>
<path d="M61.9805 30.6989V23.8989H62.9314V29.871H65.877V30.6989H61.9805Z" fill="#707070"/>
<path d="M57.6702 23.8989C58.5453 23.8989 59.1839 24.0741 59.5859 24.4245C59.991 24.7749 60.1936 25.2726 60.1936 25.9175C60.1936 26.209 60.1472 26.4865 60.0544 26.7501C59.9617 27.0106 59.8101 27.2416 59.5999 27.4431C59.3927 27.6416 59.119 27.7997 58.7788 27.9175C58.4386 28.0323 58.0212 28.0896 57.5264 28.0896H56.7517V30.6989H55.8008V23.8989H57.6702ZM57.5959 24.6989H56.7517V27.285H57.4243C57.8171 27.285 58.1464 27.2416 58.4124 27.1547C58.6783 27.0648 58.8793 26.9222 59.0154 26.7268C59.1514 26.5315 59.2195 26.2741 59.2195 25.9547C59.2195 25.533 59.0881 25.2183 58.8252 25.0106C58.5623 24.8028 58.1526 24.6989 57.5959 24.6989Z" fill="#707070"/>
<path d="M49.75 30.6989V23.8989H50.7009V30.6989H49.75Z" fill="#707070"/>
<path d="M45.4397 23.8989C46.3149 23.8989 46.9534 24.0741 47.3555 24.4245C47.7606 24.7749 47.9631 25.2726 47.9631 25.9175C47.9631 26.209 47.9167 26.4865 47.824 26.7501C47.7312 27.0106 47.5797 27.2416 47.3694 27.4431C47.1622 27.6416 46.8885 27.7997 46.5483 27.9175C46.2082 28.0323 45.7907 28.0896 45.2959 28.0896H44.5212V30.6989H43.5703V23.8989H45.4397ZM45.3655 24.6989H44.5212V27.285H45.1938C45.5866 27.285 45.9159 27.2416 46.1819 27.1547C46.4478 27.0648 46.6488 26.9222 46.7849 26.7268C46.921 26.5315 46.989 26.2741 46.989 25.9547C46.989 25.533 46.8576 25.2183 46.5947 25.0106C46.3319 24.8028 45.9221 24.6989 45.3655 24.6989Z" fill="#707070"/>
<path d="M41.249 30.699L40.4976 28.6757H37.8396L37.0974 30.699H36.1094L38.6978 23.8711H39.6719L42.2463 30.699H41.249ZM40.2332 27.8478L39.5188 25.8432C39.4972 25.775 39.4631 25.6726 39.4167 25.5362C39.3735 25.3998 39.3286 25.2587 39.2822 25.113C39.2389 24.9672 39.2034 24.8463 39.1755 24.7502C39.1446 24.8773 39.109 25.0122 39.0688 25.1548C39.0286 25.2943 38.9884 25.4261 38.9482 25.5502C38.9111 25.6711 38.8802 25.7688 38.8555 25.8432L38.1318 27.8478H40.2332Z" fill="#707070"/>
<rect width="32" height="32" transform="translate(0.109375 0.791992)" fill="#13A8A1"/>
<path fill-rule="evenodd" clip-rule="evenodd" d="M21.1677 20.6067H24.7767C24.7951 20.6067 24.8114 20.595 24.8172 20.5777L26.0363 16.9355L26.0368 16.9339L27.0932 13.3223C27.0963 13.3116 27.0951 13.3002 27.0899 13.2905L26.9341 13C26.9267 12.9862 26.9122 12.9775 26.8965 12.9775H22.4745C22.4535 12.9775 22.4356 12.9927 22.4323 13.0132L21.7988 16.9342L21.7986 16.9352L21.1257 20.5566C21.1214 20.5796 21.1368 20.6017 21.1599 20.606C21.1625 20.6064 21.1651 20.6067 21.1677 20.6067Z" fill="white"/>
<path fill-rule="evenodd" clip-rule="evenodd" d="M13.0609 20.6067H16.6546C16.6729 20.6067 16.6892 20.595 16.695 20.5777L17.9225 16.9355L17.923 16.9339L18.9865 13.3224C18.9897 13.3117 18.9885 13.3002 18.9832 13.2904L18.8263 12.9999C18.8189 12.9861 18.8044 12.9775 18.7887 12.9775H14.3361C14.3152 12.9775 14.2974 12.9926 14.294 13.0132L13.6561 16.9344L13.656 16.935L13.0188 20.557C13.0148 20.5801 13.0303 20.602 13.0535 20.606C13.056 20.6065 13.0584 20.6067 13.0609 20.6067Z" fill="white"/>
<path fill-rule="evenodd" clip-rule="evenodd" d="M5.16767 20.6067H8.77671C8.79509 20.6067 8.8114 20.595 8.8172 20.5777L10.0363 16.9355L10.0368 16.9339L11.0932 13.3223C11.0963 13.3116 11.0951 13.3002 11.0899 13.2905L10.9341 13C10.9267 12.9862 10.9122 12.9775 10.8964 12.9775H6.47445C6.4535 12.9775 6.43564 12.9927 6.43232 13.0132L5.79877 16.9342L5.7986 16.9352L5.12572 20.5566C5.12144 20.5796 5.13676 20.6017 5.15993 20.606C5.16248 20.6064 5.16508 20.6067 5.16767 20.6067Z" fill="white"/>
</svg>
